<svg width="14" height="15" viewBox="0 0 14 15" fill="none" xmlns="http://www.w3.org/2000/svg">
<path d="M12.0515 15H1.09036C0.49528 15 0.0111492 14.5209 0.00492966 13.9258C9.27228e-07 13.453 -0.00595462 12.98 0.0130855 12.5084C0.107553 10.1511 1.22708 8.46533 3.36609 7.46491C3.57849 7.36546 3.80498 7.29651 3.98893 7.22728C3.73398 6.89224 3.44823 6.57187 3.22468 6.2119C2.71743 5.39485 2.63558 4.48274 2.71157 3.54745C3.09439 -1.18234 10.0475 -1.18263 10.4303 3.54745C10.5063 4.48274 10.4244 5.39485 9.91719 6.2119C9.69364 6.57187 9.40789 6.89224 9.15294 7.22728C9.33689 7.29651 9.56338 7.36546 9.77578 7.46491C11.9148 8.46533 13.0343 10.1511 13.1288 12.5084C13.1478 12.98 13.1419 13.4529 13.137 13.9257C13.1308 14.5208 12.6467 15 12.0515 15Z" fill="#018CF1"/>
</svg>
