<svg width="195" height="52" viewBox="0 0 195 52" fill="none" xmlns="http://www.w3.org/2000/svg">
<path d="M154.44 33.827C154.44 34.1384 154.694 34.3921 155.005 34.3921H159.385C159.696 34.3921 159.95 34.1384 159.95 33.827V15.6211C159.95 15.3097 159.696 15.056 159.385 15.056H155.005C154.694 15.056 154.44 15.3097 154.44 15.6211V33.827Z" fill="#293066"/>
<path d="M127.925 33.7674C132.312 34.3849 135.881 34.6846 138.834 34.6846C146.207 34.6846 149.495 32.7869 149.495 28.5338C149.495 23.2823 146.059 22.8263 139.476 22.4219C133.07 22.0436 131.916 21.975 131.916 19.5889C131.916 17.8718 132.878 16.8778 137.797 16.8778C140.272 16.8778 143.617 17.1306 148.021 17.6515C148.179 17.6515 148.299 17.554 148.305 17.4195L148.378 15.9362C148.384 15.808 148.287 15.6933 148.157 15.6762C143.805 15.0686 140.061 14.7607 137.032 14.7607C126.437 14.7607 126.437 18.5498 126.437 20.3716C126.437 26.2669 132.153 26.508 137.196 26.7201C140.987 26.8808 144.262 27.0189 144.262 29.6407C144.262 31.7523 142.547 32.5748 138.146 32.5748C135.726 32.5748 132.428 32.3193 128.063 31.7929C127.904 31.7929 127.784 31.8904 127.779 32.025L127.705 33.5074C127.698 33.6356 127.795 33.7502 127.925 33.7674Z" fill="#293066"/>
<path d="M187.956 28.5339C187.956 23.2823 184.52 22.8264 177.937 22.4219L177.94 22.3768L177.933 22.4219C171.529 22.0455 170.376 21.9777 170.376 19.5889C170.376 17.8718 171.338 16.8778 176.257 16.8778C178.735 16.8778 182.086 17.1315 186.489 17.6533C186.629 17.6696 186.759 17.5658 186.767 17.4249L186.84 15.9326C186.846 15.8062 186.751 15.6952 186.626 15.678C182.265 15.0713 178.521 14.7626 175.494 14.7626C175.492 14.7626 175.488 14.7626 175.485 14.7626C171.099 14.7626 168.056 15.4117 166.441 16.69C165.08 17.7671 164.897 19.1565 164.897 20.3735C164.897 26.2705 170.613 26.5107 175.656 26.7219C179.449 26.8817 182.722 27.019 182.722 29.6425C182.722 31.7541 181.007 32.5766 176.604 32.5766C174.184 32.5766 170.881 32.3202 166.514 31.793C166.374 31.7758 166.243 31.8805 166.237 32.0223L166.166 33.5119C166.159 33.6383 166.255 33.7493 166.38 33.7665C170.767 34.3831 174.341 34.6837 177.298 34.6837C184.669 34.6846 187.956 32.787 187.956 28.5339Z" fill="#293066"/>
<path d="M115.829 33.827C115.829 34.1384 116.083 34.3921 116.394 34.3921H120.774C121.085 34.3921 121.339 34.1384 121.339 33.827V15.6211C121.339 15.3097 121.085 15.056 120.774 15.056H116.394C116.083 15.056 115.829 15.3097 115.829 15.6211V33.827Z" fill="#293066"/>
<path d="M73.9313 21.1318C73.9313 18.3421 72.6312 17.1414 65.8873 17.1414H60.5157V33.8612C60.5157 34.1772 60.2629 34.43 59.9469 34.43H55.2704C54.9635 34.43 54.7017 34.1772 54.7017 33.8612V15.5796C54.7017 15.2636 54.9635 15.0108 55.2704 15.0108H66.1672C75.8542 15.0108 79.7995 16.4914 79.7995 20.9422C79.7995 23.5513 78.3821 25.4562 75.3396 26.2597L74.9334 26.359L97.6929 41.0565L62.0956 25.4291H65.0116C70.7534 25.4291 73.9313 24.9055 73.9313 21.1318Z" fill="#293066"/>
<path d="M112.173 34.1321C112.065 34.3217 111.866 34.439 111.649 34.439H106.341C106.124 34.439 105.916 34.3126 105.808 34.114L97.2857 17.665C97.1232 17.3491 96.7801 17.1414 96.419 17.1414H94.9474C94.5773 17.1414 94.2433 17.34 94.0808 17.656L87.6077 30.0514C87.4542 30.3494 87.075 30.4487 86.7952 30.2591L84.9986 29.1035C84.7458 28.941 84.6646 28.616 84.809 28.3542L91.6251 15.7421C91.8779 15.2907 92.3474 15.0108 92.862 15.0108H101.186C101.7 15.0108 102.17 15.2907 102.414 15.7421L112.182 33.5362C112.29 33.7258 112.281 33.9515 112.173 34.1321Z" fill="#293066"/>
<path d="M193.754 17.0602C193.899 16.9518 193.971 16.7893 193.971 16.5727C193.971 16.0671 193.556 15.8775 192.617 15.8775H191.958C191.804 15.8775 191.732 15.9497 191.732 16.0942V18.1074H192.183V16.2025C192.183 16.1393 192.22 16.1032 192.283 16.1032H192.608C192.96 16.1032 193.195 16.1393 193.312 16.2025C193.438 16.2567 193.501 16.3831 193.501 16.5817C193.501 16.7623 193.429 16.8887 193.294 16.9518C193.158 17.006 192.888 17.0421 192.499 17.0421C192.373 17.0421 192.337 17.1775 192.418 17.2498L193.321 18.1074H193.944L192.951 17.2317C193.348 17.2227 193.619 17.1685 193.754 17.0602ZM193.754 17.0602C193.899 16.9518 193.971 16.7893 193.971 16.5727C193.971 16.0671 193.556 15.8775 192.617 15.8775H191.958C191.804 15.8775 191.732 15.9497 191.732 16.0942V18.1074H192.183V16.2025C192.183 16.1393 192.22 16.1032 192.283 16.1032H192.608C192.96 16.1032 193.195 16.1393 193.312 16.2025C193.438 16.2567 193.501 16.3831 193.501 16.5817C193.501 16.7623 193.429 16.8887 193.294 16.9518C193.158 17.006 192.888 17.0421 192.499 17.0421C192.373 17.0421 192.337 17.1775 192.418 17.2498L193.321 18.1074H193.944L192.951 17.2317C193.348 17.2227 193.619 17.1685 193.754 17.0602ZM193.754 17.0602C193.899 16.9518 193.971 16.7893 193.971 16.5727C193.971 16.0671 193.556 15.8775 192.617 15.8775H191.958C191.804 15.8775 191.732 15.9497 191.732 16.0942V18.1074H192.183V16.2025C192.183 16.1393 192.22 16.1032 192.283 16.1032H192.608C192.96 16.1032 193.195 16.1393 193.312 16.2025C193.438 16.2567 193.501 16.3831 193.501 16.5817C193.501 16.7623 193.429 16.8887 193.294 16.9518C193.158 17.006 192.888 17.0421 192.499 17.0421C192.373 17.0421 192.337 17.1775 192.418 17.2498L193.321 18.1074H193.944L192.951 17.2317C193.348 17.2227 193.619 17.1685 193.754 17.0602ZM193.754 17.0602C193.899 16.9518 193.971 16.7893 193.971 16.5727C193.971 16.0671 193.556 15.8775 192.617 15.8775H191.958C191.804 15.8775 191.732 15.9497 191.732 16.0942V18.1074H192.183V16.2025C192.183 16.1393 192.22 16.1032 192.283 16.1032H192.608C192.96 16.1032 193.195 16.1393 193.312 16.2025C193.438 16.2567 193.501 16.3831 193.501 16.5817C193.501 16.7623 193.429 16.8887 193.294 16.9518C193.158 17.006 192.888 17.0421 192.499 17.0421C192.373 17.0421 192.337 17.1775 192.418 17.2498L193.321 18.1074H193.944L192.951 17.2317C193.348 17.2227 193.619 17.1685 193.754 17.0602ZM193.754 17.0602C193.899 16.9518 193.971 16.7893 193.971 16.5727C193.971 16.0671 193.556 15.8775 192.617 15.8775H191.958C191.804 15.8775 191.732 15.9497 191.732 16.0942V18.1074H192.183V16.2025C192.183 16.1393 192.22 16.1032 192.283 16.1032H192.608C192.96 16.1032 193.195 16.1393 193.312 16.2025C193.438 16.2567 193.501 16.3831 193.501 16.5817C193.501 16.7623 193.429 16.8887 193.294 16.9518C193.158 17.006 192.888 17.0421 192.499 17.0421C192.373 17.0421 192.337 17.1775 192.418 17.2498L193.321 18.1074H193.944L192.951 17.2317C193.348 17.2227 193.619 17.1685 193.754 17.0602ZM193.754 17.0602C193.899 16.9518 193.971 16.7893 193.971 16.5727C193.971 16.0671 193.556 15.8775 192.617 15.8775H191.958C191.804 15.8775 191.732 15.9497 191.732 16.0942V18.1074H192.183V16.2025C192.183 16.1393 192.22 16.1032 192.283 16.1032H192.608C192.96 16.1032 193.195 16.1393 193.312 16.2025C193.438 16.2567 193.501 16.3831 193.501 16.5817C193.501 16.7623 193.429 16.8887 193.294 16.9518C193.158 17.006 192.888 17.0421 192.499 17.0421C192.373 17.0421 192.337 17.1775 192.418 17.2498L193.321 18.1074H193.944L192.951 17.2317C193.348 17.2227 193.619 17.1685 193.754 17.0602ZM193.754 17.0602C193.899 16.9518 193.971 16.7893 193.971 16.5727C193.971 16.0671 193.556 15.8775 192.617 15.8775H191.958C191.804 15.8775 191.732 15.9497 191.732 16.0942V18.1074H192.183V16.2025C192.183 16.1393 192.22 16.1032 192.283 16.1032H192.608C192.96 16.1032 193.195 16.1393 193.312 16.2025C193.438 16.2567 193.501 16.3831 193.501 16.5817C193.501 16.7623 193.429 16.8887 193.294 16.9518C193.158 17.006 192.888 17.0421 192.499 17.0421C192.373 17.0421 192.337 17.1775 192.418 17.2498L193.321 18.1074H193.944L192.951 17.2317C193.348 17.2227 193.619 17.1685 193.754 17.0602ZM193.754 17.0602C193.899 16.9518 193.971 16.7893 193.971 16.5727C193.971 16.0671 193.556 15.8775 192.617 15.8775H191.958C191.804 15.8775 191.732 15.9497 191.732 16.0942V18.1074H192.183V16.2025C192.183 16.1393 192.22 16.1032 192.283 16.1032H192.608C192.96 16.1032 193.195 16.1393 193.312 16.2025C193.438 16.2567 193.501 16.3831 193.501 16.5817C193.501 16.7623 193.429 16.8887 193.294 16.9518C193.158 17.006 192.888 17.0421 192.499 17.0421C192.373 17.0421 192.337 17.1775 192.418 17.2498L193.321 18.1074H193.944L192.951 17.2317C193.348 17.2227 193.619 17.1685 193.754 17.0602ZM192.788 15.056C191.308 15.056 190.558 15.6608 190.558 17.015C190.558 18.3963 191.281 18.9831 192.779 18.9831C194.287 18.9831 195 18.3963 195 17.015C195 15.6699 194.269 15.056 192.788 15.056ZM194.088 18.3331C193.826 18.5949 193.384 18.7304 192.779 18.7304C192.165 18.7304 191.723 18.5949 191.461 18.3331C191.199 18.0623 191.073 17.6289 191.073 17.015C191.073 16.4192 191.199 15.9859 191.47 15.724C191.741 15.4532 192.174 15.3178 192.788 15.3178C193.989 15.3178 194.486 15.8143 194.486 17.015C194.486 17.6289 194.35 18.0623 194.088 18.3331ZM193.971 16.5727C193.971 16.0671 193.556 15.8775 192.617 15.8775H191.958C191.804 15.8775 191.732 15.9497 191.732 16.0942V18.1074H192.183V16.2025C192.183 16.1393 192.22 16.1032 192.283 16.1032H192.608C192.96 16.1032 193.195 16.1393 193.312 16.2025C193.438 16.2567 193.501 16.3831 193.501 16.5817C193.501 16.7623 193.429 16.8887 193.294 16.9518C193.158 17.006 192.888 17.0421 192.499 17.0421C192.373 17.0421 192.337 17.1775 192.418 17.2498L193.321 18.1074H193.944L192.951 17.2317C193.348 17.2227 193.619 17.1685 193.754 17.0602C193.899 16.9518 193.971 16.7893 193.971 16.5727ZM193.754 17.0602C193.899 16.9518 193.971 16.7893 193.971 16.5727C193.971 16.0671 193.556 15.8775 192.617 15.8775H191.958C191.804 15.8775 191.732 15.9497 191.732 16.0942V18.1074H192.183V16.2025C192.183 16.1393 192.22 16.1032 192.283 16.1032H192.608C192.96 16.1032 193.195 16.1393 193.312 16.2025C193.438 16.2567 193.501 16.3831 193.501 16.5817C193.501 16.7623 193.429 16.8887 193.294 16.9518C193.158 17.006 192.888 17.0421 192.499 17.0421C192.373 17.0421 192.337 17.1775 192.418 17.2498L193.321 18.1074H193.944L192.951 17.2317C193.348 17.2227 193.619 17.1685 193.754 17.0602ZM193.754 17.0602C193.899 16.9518 193.971 16.7893 193.971 16.5727C193.971 16.0671 193.556 15.8775 192.617 15.8775H191.958C191.804 15.8775 191.732 15.9497 191.732 16.0942V18.1074H192.183V16.2025C192.183 16.1393 192.22 16.1032 192.283 16.1032H192.608C192.96 16.1032 193.195 16.1393 193.312 16.2025C193.438 16.2567 193.501 16.3831 193.501 16.5817C193.501 16.7623 193.429 16.8887 193.294 16.9518C193.158 17.006 192.888 17.0421 192.499 17.0421C192.373 17.0421 192.337 17.1775 192.418 17.2498L193.321 18.1074H193.944L192.951 17.2317C193.348 17.2227 193.619 17.1685 193.754 17.0602ZM193.754 17.0602C193.899 16.9518 193.971 16.7893 193.971 16.5727C193.971 16.0671 193.556 15.8775 192.617 15.8775H191.958C191.804 15.8775 191.732 15.9497 191.732 16.0942V18.1074H192.183V16.2025C192.183 16.1393 192.22 16.1032 192.283 16.1032H192.608C192.96 16.1032 193.195 16.1393 193.312 16.2025C193.438 16.2567 193.501 16.3831 193.501 16.5817C193.501 16.7623 193.429 16.8887 193.294 16.9518C193.158 17.006 192.888 17.0421 192.499 17.0421C192.373 17.0421 192.337 17.1775 192.418 17.2498L193.321 18.1074H193.944L192.951 17.2317C193.348 17.2227 193.619 17.1685 193.754 17.0602ZM193.754 17.0602C193.899 16.9518 193.971 16.7893 193.971 16.5727C193.971 16.0671 193.556 15.8775 192.617 15.8775H191.958C191.804 15.8775 191.732 15.9497 191.732 16.0942V18.1074H192.183V16.2025C192.183 16.1393 192.22 16.1032 192.283 16.1032H192.608C192.96 16.1032 193.195 16.1393 193.312 16.2025C193.438 16.2567 193.501 16.3831 193.501 16.5817C193.501 16.7623 193.429 16.8887 193.294 16.9518C193.158 17.006 192.888 17.0421 192.499 17.0421C192.373 17.0421 192.337 17.1775 192.418 17.2498L193.321 18.1074H193.944L192.951 17.2317C193.348 17.2227 193.619 17.1685 193.754 17.0602ZM193.754 17.0602C193.899 16.9518 193.971 16.7893 193.971 16.5727C193.971 16.0671 193.556 15.8775 192.617 15.8775H191.958C191.804 15.8775 191.732 15.9497 191.732 16.0942V18.1074H192.183V16.2025C192.183 16.1393 192.22 16.1032 192.283 16.1032H192.608C192.96 16.1032 193.195 16.1393 193.312 16.2025C193.438 16.2567 193.501 16.3831 193.501 16.5817C193.501 16.7623 193.429 16.8887 193.294 16.9518C193.158 17.006 192.888 17.0421 192.499 17.0421C192.373 17.0421 192.337 17.1775 192.418 17.2498L193.321 18.1074H193.944L192.951 17.2317C193.348 17.2227 193.619 17.1685 193.754 17.0602ZM193.754 17.0602C193.899 16.9518 193.971 16.7893 193.971 16.5727C193.971 16.0671 193.556 15.8775 192.617 15.8775H191.958C191.804 15.8775 191.732 15.9497 191.732 16.0942V18.1074H192.183V16.2025C192.183 16.1393 192.22 16.1032 192.283 16.1032H192.608C192.96 16.1032 193.195 16.1393 193.312 16.2025C193.438 16.2567 193.501 16.3831 193.501 16.5817C193.501 16.7623 193.429 16.8887 193.294 16.9518C193.158 17.006 192.888 17.0421 192.499 17.0421C192.373 17.0421 192.337 17.1775 192.418 17.2498L193.321 18.1074H193.944L192.951 17.2317C193.348 17.2227 193.619 17.1685 193.754 17.0602Z" fill="#293066"/>
<path d="M53.2254 43.3795C38.3383 34.0626 26.0331 33.4306 17.0142 35.5342C27.7123 20.7734 40.7668 13.0725 48.3864 10.4634C35.8736 16.6837 27.5227 30.1715 27.5227 30.1715C42.0578 31.9952 51.0948 41.4655 53.2254 43.3795Z" fill="#018CF1"/>
<path d="M8.21366 28.6531L0 44.6308C0.325008 44.294 4.62775 39.8622 12.2474 36.9877C25.9248 16.1962 45.9669 6.85227 50.5983 5.1189C38.8899 8.57662 22.7478 15.4912 8.21366 28.6531Z" fill="#018CF1"/>
<path d="M17.563 10.4661L17.5431 10.505L11.823 21.632C30.315 7.22058 47.6289 2.36082 57.8666 0C37.0273 2.37707 25.0743 6.81613 17.563 10.4661Z" fill="#018CF1"/>
<path d="M145.418 50.4547C141.529 50.4547 140.585 49.2269 140.585 46.44C140.585 43.653 141.529 42.4252 145.418 42.4252C147.053 42.4252 148.922 42.6789 149.798 42.8098C149.917 42.8279 150.039 42.7945 150.132 42.7177C150.225 42.641 150.283 42.5281 150.288 42.4081L150.311 41.9242C150.321 41.7066 150.173 41.517 149.958 41.4827C149.106 41.3464 147.075 41.0557 144.851 41.0557C139.278 41.0557 137.719 42.929 137.703 46.44C137.718 49.9509 139.278 51.8242 144.851 51.8242C147.075 51.8242 149.106 51.5335 149.958 51.3972C150.173 51.3629 150.321 51.1733 150.311 50.9558L150.288 50.4719C150.283 50.3509 150.226 50.238 150.132 50.1613C150.038 50.0846 149.917 50.0511 149.797 50.0692C148.922 50.201 147.053 50.4547 145.418 50.4547Z" fill="#018CF1"/>
<path d="M165.758 49.1005C165.663 47.5107 164.184 47.2588 162.988 47.0385C162.783 46.9916 162.673 46.9284 162.673 46.7081C162.673 46.4716 162.766 46.4246 162.971 46.3614C164.546 45.9046 165.553 45.6527 165.616 43.8426C165.616 41.796 163.837 41.2299 160.972 41.2299H153.292C153.056 41.2299 152.865 41.4213 152.865 41.6569V51.2699C152.865 51.5056 153.056 51.697 153.292 51.697H155.177C155.412 51.697 155.604 51.5056 155.604 51.2699V47.3843L159.649 47.4475C161.711 47.4944 162.877 47.7779 162.94 49.4779L162.99 51.2356C162.997 51.4668 163.186 51.6509 163.417 51.6509H165.459C165.706 51.6509 165.901 51.4433 165.886 51.1977L165.758 49.1005ZM159.728 46.2197L155.604 46.2666V42.4415H159.949C161.76 42.4415 162.688 42.7096 162.688 44.331C162.689 46.0626 161.461 46.1565 159.728 46.2197Z" fill="#018CF1"/>
<path d="M187.953 51.213C187.987 51.4694 187.788 51.6978 187.529 51.6978H185.525C185.309 51.6978 185.128 51.5371 185.101 51.3232L184.039 42.8224C184.012 42.6066 183.829 42.4441 183.61 42.4441H182.879C182.68 42.4441 182.505 42.5814 182.459 42.7755L180.405 51.325C180.359 51.5173 180.188 51.6527 179.99 51.6527H175.373C175.176 51.6527 175.004 51.5173 174.958 51.3259L172.896 42.7755C172.849 42.5814 172.676 42.445 172.476 42.445H171.739C171.519 42.445 171.335 42.6094 171.31 42.8269L170.324 51.3205C170.299 51.5362 170.116 51.6987 169.9 51.6987H168.994C168.737 51.6987 168.538 51.4739 168.57 51.2184L169.763 41.61C169.789 41.396 169.972 41.2353 170.188 41.2353H174.996C175.194 41.2353 175.367 41.3725 175.412 41.5657L177.415 50.173C177.46 50.3689 177.636 50.507 177.836 50.507H178.532C178.733 50.507 178.907 50.3698 178.953 50.1748L180.99 41.5648C181.036 41.3716 181.208 41.2362 181.407 41.2362H186.229C186.443 41.2362 186.624 41.3942 186.653 41.6063L187.953 51.213Z" fill="#018CF1"/>
</svg>
