<svg width="67" height="67" viewBox="0 0 67 67" fill="none" xmlns="http://www.w3.org/2000/svg">
<g filter="url(#filter0_d_71_799)">
<circle cx="33.5" cy="28.5" r="23.5" fill="white"/>
<g clip-path="url(#clip0_71_799)">
<path d="M45.9823 39.8175C38.3326 34.8117 32.0096 34.4721 27.3752 35.6023C32.8725 27.6715 39.5805 23.5339 43.4958 22.1321C37.0661 25.4742 32.7751 32.721 32.7751 32.721C40.2439 33.7009 44.8875 38.7892 45.9823 39.8175Z" fill="#018CF1"/>
<path d="M22.8531 31.9051L18.6326 40.4898C18.7996 40.3088 21.0105 37.9277 24.9259 36.3832C31.954 25.2122 42.2526 20.1918 44.6324 19.2605C38.6161 21.1183 30.3215 24.8334 22.8531 31.9051Z" fill="#018CF1"/>
<path d="M27.6575 22.1335L27.6473 22.1544L24.708 28.1328C34.2101 20.3897 43.1068 17.7786 48.3675 16.5102C37.6592 17.7874 31.5172 20.1724 27.6575 22.1335Z" fill="#018CF1"/>
</g>
</g>
<defs>
<filter id="filter0_d_71_799" x="0" y="0" width="67" height="67" filterUnits="userSpaceOnUse" color-interpolation-filters="sRGB">
<feFlood flood-opacity="0" result="BackgroundImageFix"/>
<feColorMatrix in="SourceAlpha" type="matrix" values="0 0 0 0 0 0 0 0 0 0 0 0 0 0 0 0 0 0 127 0" result="hardAlpha"/>
<feOffset dy="5"/>
<feGaussianBlur stdDeviation="5"/>
<feColorMatrix type="matrix" values="0 0 0 0 0.117647 0 0 0 0 0.4 0 0 0 0 0.792157 0 0 0 1 0"/>
<feBlend mode="normal" in2="BackgroundImageFix" result="effect1_dropShadow_71_799"/>
<feBlend mode="normal" in="SourceGraphic" in2="effect1_dropShadow_71_799" result="shape"/>
</filter>
<clipPath id="clip0_71_799">
<rect width="29.7347" height="23.9796" fill="white" transform="translate(18.6326 16.5102)"/>
</clipPath>
</defs>
</svg>
